<?xml version="1.0" standalone="no"?>
<!DOCTYPE svg PUBLIC "-//W3C//DTD SVG 20010904//EN"
 "http://www.w3.org/TR/2001/REC-SVG-20010904/DTD/svg10.dtd">
<svg version="1.0" xmlns="http://www.w3.org/2000/svg"
 width="1536.000000pt" height="1024.000000pt" viewBox="0 0 1536.000000 1024.000000"
 preserveAspectRatio="xMidYMid meet">
<metadata>
Created by potrace 1.16, written by Peter Selinger 2001-2019
</metadata>
<g transform="translate(0.000000,1024.000000) scale(0.100000,-0.100000)"
fill="#000000" stroke="none">
<path d="M2543 6361 c-249 -71 -462 -285 -529 -531 -23 -81 -25 -280 -5 -360
17 -70 66 -191 104 -254 l28 -49 -128 -129 -128 -128 -49 15 c-56 17 -190 19
-256 4 -185 -42 -340 -209 -373 -402 -22 -129 17 -279 101 -389 43 -57 143
-129 222 -159 79 -31 212 -37 296 -14 130 35 257 147 321 281 33 70 37 86 41
183 4 95 1 114 -22 185 -32 94 -39 78 102 226 l100 105 123 -120 c68 -67 192
-185 274 -264 83 -79 247 -241 365 -360 228 -230 291 -279 404 -319 60 -21 89
-25 186 -25 128 0 210 21 304 80 49 31 195 154 194 163 -1 3 -59 61 -130 130
l-129 125 -52 -57 c-62 -69 -120 -98 -197 -98 -101 0 -112 9 -612 494 -255
248 -517 504 -584 570 -131 131 -161 178 -191 300 -14 59 -15 79 -5 139 30
174 169 313 349 349 71 14 151 0 243 -45 56 -27 103 -69 341 -305 l276 -273
32 67 c32 68 111 187 134 201 9 6 -69 87 -251 263 -277 267 -319 303 -416 352
-132 67 -344 89 -483 49z"/>
<path d="M8275 6336 c-252 -61 -386 -316 -331 -627 44 -246 220 -381 478 -367
92 5 164 31 211 75 l27 27 0 -47 0 -47 70 0 70 0 0 250 c0 138 -1 252 -2 255
-2 3 -88 7 -193 7 l-190 2 -3 -67 -3 -67 116 0 115 0 0 -33 c0 -18 -11 -56
-25 -84 -43 -86 -136 -131 -248 -119 -107 11 -185 73 -228 182 -19 49 -23 78
-22 169 0 121 11 165 62 238 97 142 353 139 427 -4 14 -29 16 -29 104 -29 88
0 90 1 90 23 0 38 -58 143 -98 178 -96 85 -279 121 -427 85z"/>
<path d="M6268 6321 c-121 -40 -201 -109 -258 -221 -130 -258 -40 -611 185
-720 24 -12 81 -29 126 -38 293 -57 529 162 529 493 0 215 -100 389 -267 467
-86 41 -225 49 -315 19z m223 -163 c59 -17 112 -68 144 -140 24 -53 30 -79 33
-164 5 -119 -11 -186 -60 -260 -48 -70 -109 -99 -208 -98 -88 0 -138 22 -190
80 -62 72 -75 114 -75 254 0 116 2 129 28 185 36 76 60 102 122 131 56 27 142
32 206 12z"/>
<path d="M9547 6330 c-185 -47 -310 -218 -324 -445 -21 -340 174 -562 477
-542 42 2 100 14 132 26 106 41 208 158 224 259 l7 42 -85 0 -85 0 -29 -57
c-41 -80 -98 -115 -187 -116 -158 -2 -258 108 -274 300 -14 174 58 326 176
368 122 43 247 -6 296 -116 l18 -39 85 0 85 0 -7 41 c-16 99 -105 207 -211
255 -50 23 -76 28 -160 30 -55 2 -117 -1 -138 -6z"/>
<path d="M6980 5840 l0 -490 90 0 91 0 -3 343 -3 342 230 -342 229 -343 93 0
93 0 0 490 0 490 -90 0 -91 0 3 -345 c2 -189 0 -341 -3 -337 -3 4 -109 159
-235 345 l-229 337 -87 0 -88 0 0 -490z"/>
<path d="M13910 6155 l0 -95 -50 0 -50 0 0 -65 0 -65 50 0 50 0 0 -219 c0
-131 4 -231 11 -248 28 -75 107 -113 236 -113 l73 0 0 69 0 68 -55 -1 c-44 0
-59 4 -78 22 -21 22 -22 31 -25 222 l-4 200 81 0 81 0 0 65 0 65 -80 0 -80 0
0 95 0 95 -80 0 -80 0 0 -95z"/>
<path d="M10354 6049 c-71 -27 -137 -88 -171 -157 -26 -53 -28 -65 -28 -182 0
-114 2 -130 26 -180 98 -209 386 -251 547 -81 100 106 120 331 41 470 -73 127
-266 187 -415 130z m212 -138 c52 -32 79 -101 79 -201 0 -148 -57 -225 -165
-225 -72 1 -110 27 -140 97 -19 44 -22 65 -18 143 4 103 22 145 78 182 43 30
122 31 166 4z"/>
<path d="M11222 6057 c-18 -5 -53 -28 -77 -49 l-45 -40 0 46 0 46 -80 0 -80 0
0 -355 0 -356 80 3 80 3 2 230 c3 253 6 266 68 319 37 31 112 36 161 10 54
-27 59 -57 59 -324 l0 -241 83 3 82 3 0 265 c0 255 -1 267 -23 316 -29 64 -64
99 -121 119 -49 17 -139 18 -189 2z"/>
<path d="M11982 6057 c-18 -5 -53 -28 -77 -49 l-45 -40 0 46 0 46 -80 0 -80 0
0 -355 0 -355 79 0 80 0 3 238 c3 261 7 279 69 322 37 27 111 30 156 7 56 -29
63 -68 63 -332 l0 -235 80 0 80 0 0 273 c0 265 -1 273 -24 322 -29 61 -58 90
-115 110 -49 17 -139 18 -189 2z"/>
<path d="M12639 6057 c-95 -36 -160 -103 -200 -205 -29 -74 -31 -213 -5 -290
28 -81 84 -145 163 -184 59 -29 77 -33 148 -33 101 0 168 23 230 77 38 34 85
101 85 123 0 3 -35 5 -78 5 -67 0 -82 -3 -98 -21 -29 -33 -69 -49 -118 -49
-56 0 -93 14 -128 47 -29 28 -64 115 -53 133 4 7 87 10 243 10 l237 -2 3 34
c5 48 -16 145 -43 198 -30 58 -86 114 -144 142 -56 27 -187 35 -242 15z m182
-139 c25 -14 46 -37 59 -63 37 -77 40 -75 -140 -75 l-159 0 15 42 c36 104 136
146 225 96z"/>
<path d="M13363 6056 c-89 -28 -152 -86 -195 -183 -31 -67 -33 -253 -4 -328
26 -66 103 -147 169 -176 105 -45 268 -26 350 42 43 35 97 123 97 157 0 21 -4
22 -78 22 l-78 0 -17 -35 c-49 -103 -200 -97 -263 11 -26 45 -29 58 -29 144 0
83 3 101 25 138 32 57 78 84 140 84 59 0 106 -29 126 -78 l14 -34 80 0 c77 0
80 1 80 23 0 13 -12 47 -26 75 -31 63 -96 116 -167 137 -61 18 -167 18 -224 1z"/>
<path d="M6790 4475 l0 -485 85 0 85 0 -2 483 -3 482 -82 3 -83 3 0 -486z"/>
<path d="M8473 4944 c-59 -21 -99 -70 -113 -140 -7 -31 -10 -69 -8 -85 4 -27
3 -28 -46 -31 l-51 -3 -3 -62 -3 -63 51 0 50 0 0 -285 0 -285 85 0 85 0 0 285
0 285 75 0 75 0 0 65 0 65 -80 0 c-79 0 -80 0 -80 25 0 38 25 92 48 104 12 6
43 11 71 11 l51 0 0 59 c0 44 -4 60 -16 65 -29 11 -149 5 -191 -10z"/>
<path d="M6108 4943 l-128 -4 0 -474 0 -475 85 0 85 0 0 170 0 170 115 0 c177
0 258 24 331 97 58 57 78 113 78 213 0 181 -89 275 -284 299 -47 6 -100 10
-120 9 -19 -1 -92 -4 -162 -5z m318 -169 c53 -39 69 -71 69 -134 0 -63 -16
-95 -69 -134 -24 -18 -45 -21 -152 -24 l-124 -4 0 162 0 162 124 -3 c107 -3
128 -7 152 -25z"/>
<path d="M7864 4856 c-3 -8 -4 -49 -2 -90 l3 -75 -50 -3 -50 -3 0 -65 0 -64
47 3 46 2 4 -223 c3 -249 10 -279 73 -318 46 -28 133 -44 199 -36 l56 7 0 65
0 64 -60 0 c-79 0 -96 17 -105 102 -3 34 -5 124 -3 198 l3 135 83 3 83 3 -3
62 c-3 54 -6 62 -23 63 -11 0 -47 1 -81 2 l-61 2 -1 88 0 87 -76 3 c-60 2 -78
0 -82 -12z"/>
<path d="M7335 4690 c-58 -8 -140 -47 -172 -82 -24 -25 -53 -88 -53 -113 0
-12 14 -15 71 -15 64 0 73 2 91 25 47 60 152 75 206 30 37 -31 51 -80 29 -102
-9 -9 -55 -20 -118 -29 -145 -18 -193 -32 -240 -66 -49 -35 -69 -79 -69 -150
1 -129 89 -208 231 -208 62 0 144 28 179 60 31 29 40 23 40 -26 0 -23 2 -24
75 -24 l75 0 0 243 c0 265 -7 309 -54 372 -51 66 -173 102 -291 85z m182 -421
c-7 -59 -30 -103 -70 -133 -22 -16 -43 -21 -94 -21 -59 0 -67 3 -89 28 -45 52
-23 119 44 136 20 5 64 12 96 16 33 4 69 11 80 15 36 15 39 11 33 -41z"/>
<path d="M8957 4690 c-96 -25 -173 -88 -216 -179 -23 -50 -26 -68 -26 -171 0
-105 2 -120 28 -175 57 -122 140 -176 278 -183 64 -3 100 0 136 12 149 49 231
191 221 377 -9 149 -78 255 -198 300 -62 24 -167 33 -223 19z m146 -141 c76
-39 112 -119 105 -233 -10 -147 -94 -227 -206 -196 -84 22 -129 118 -120 250
9 119 69 189 161 190 21 0 48 -5 60 -11z"/>
<path d="M9743 4689 c-18 -5 -51 -26 -72 -47 l-40 -38 -3 41 -3 40 -72 3 -73
3 0 -351 0 -350 79 0 80 0 3 223 c3 201 5 225 23 256 29 50 78 73 143 68 l52
-4 0 78 c0 61 -3 78 -16 83 -21 8 -62 6 -101 -5z"/>
<path d="M10240 4691 c-44 -14 -84 -38 -110 -66 l-25 -27 -5 44 -5 43 -80 0
-80 0 -1 -347 -1 -348 83 0 83 0 3 233 c3 201 5 236 21 265 53 97 199 94 226
-5 6 -22 11 -137 11 -265 l0 -228 79 0 80 0 3 233 c3 257 7 274 67 314 40 27
97 30 130 7 46 -32 51 -66 51 -319 l0 -235 85 0 85 0 0 239 c0 131 -5 262 -10
292 -13 67 -48 119 -103 149 -87 49 -237 25 -306 -49 l-28 -30 -22 29 c-42 57
-162 94 -231 71z"/>
</g>
</svg>
